<svg width="30" height="30" viewBox="0 0 30 30" fill="none" xmlns="http://www.w3.org/2000/svg">
<g clip-path="url(#clip0_1_756)">
<path d="M25.3964 5.61423C23.4839 4.75173 21.4339 4.11423 19.2901 3.75173C19.271 3.74807 19.2513 3.75043 19.2336 3.75849C19.2159 3.76656 19.2011 3.77992 19.1914 3.79673C18.9289 4.25798 18.6364 4.85923 18.4314 5.33423C16.1577 4.99453 13.8462 4.99453 11.5726 5.33423C11.3443 4.80781 11.0868 4.29451 10.8014 3.79673C10.7917 3.77971 10.7771 3.76605 10.7594 3.75756C10.7418 3.74907 10.722 3.74617 10.7026 3.74923C8.56011 4.11173 6.51011 4.74923 4.59636 5.61298C4.5799 5.61989 4.56594 5.63167 4.55636 5.64673C0.666363 11.3655 -0.399888 16.943 0.123863 22.4505C0.12532 22.464 0.129507 22.477 0.136169 22.4888C0.14283 22.5007 0.151828 22.511 0.162613 22.5192C2.4331 24.1723 4.96553 25.4315 7.65386 26.2442C7.6726 26.25 7.69265 26.25 7.71138 26.2442C7.73011 26.2384 7.74666 26.2271 7.75886 26.2117C8.33736 25.4381 8.84999 24.6173 9.29136 23.758C9.29749 23.7462 9.30102 23.7333 9.30172 23.7201C9.30241 23.7068 9.30026 23.6936 9.2954 23.6813C9.29054 23.669 9.28309 23.6578 9.27355 23.6486C9.26401 23.6394 9.25261 23.6324 9.24011 23.628C8.43262 23.3239 7.65022 22.9569 6.90011 22.5305C6.88663 22.5228 6.87528 22.5119 6.86706 22.4987C6.85884 22.4855 6.85402 22.4705 6.85303 22.4551C6.85204 22.4396 6.85491 22.4241 6.86138 22.41C6.86785 22.3959 6.87773 22.3836 6.89011 22.3742C7.04761 22.258 7.20511 22.1367 7.35511 22.0155C7.36862 22.0046 7.38488 21.9976 7.40209 21.9954C7.41931 21.9932 7.4368 21.9958 7.45261 22.003C12.3614 24.208 17.6776 24.208 22.5289 22.003C22.5447 21.9954 22.5624 21.9925 22.5799 21.9944C22.5973 21.9964 22.6139 22.0033 22.6276 22.0142C22.7776 22.1367 22.9339 22.258 23.0926 22.3742C23.1051 22.3834 23.1152 22.3955 23.1218 22.4095C23.1285 22.4235 23.1316 22.4389 23.1309 22.4544C23.1301 22.4699 23.1256 22.4849 23.1176 22.4982C23.1096 22.5115 23.0984 22.5226 23.0851 22.5305C22.3376 22.9605 21.5601 23.3242 20.7439 23.6267C20.7313 23.6313 20.7199 23.6385 20.7104 23.6478C20.7008 23.6571 20.6934 23.6683 20.6885 23.6808C20.6837 23.6932 20.6815 23.7065 20.6822 23.7198C20.6829 23.7331 20.6865 23.7461 20.6926 23.758C21.1426 24.6167 21.6576 25.4342 22.2239 26.2105C22.2356 26.2264 22.252 26.2383 22.2708 26.2446C22.2896 26.2508 22.3099 26.2512 22.3289 26.2455C25.0218 25.435 27.5584 24.1752 29.8314 22.5192C29.8425 22.5115 29.8518 22.5014 29.8587 22.4898C29.8656 22.4782 29.8699 22.4652 29.8714 22.4517C30.4964 16.0842 28.8239 10.5517 25.4351 5.64923C25.4268 5.6333 25.4131 5.62088 25.3964 5.61423ZM10.0251 19.0967C8.54761 19.0967 7.32886 17.7605 7.32886 16.1217C7.32886 14.4817 8.52386 13.1467 10.0251 13.1467C11.5376 13.1467 12.7451 14.493 12.7214 16.1217C12.7214 17.7617 11.5264 19.0967 10.0251 19.0967ZM19.9939 19.0967C18.5151 19.0967 17.2976 17.7605 17.2976 16.1217C17.2976 14.4817 18.4914 13.1467 19.9939 13.1467C21.5064 13.1467 22.7139 14.493 22.6901 16.1217C22.6901 17.7617 21.5076 19.0967 19.9939 19.0967Z" fill="white"/>
</g>
<defs>
<clipPath id="clip0_1_756">
<rect width="30" height="30" fill="white"/>
</clipPath>
</defs>
</svg>
