<svg width="30" height="30" viewBox="0 0 30 30" fill="none" xmlns="http://www.w3.org/2000/svg">
<path d="M29.5539 6.17049C28.5101 6.63299 27.3889 6.94549 26.2101 7.08674C27.4264 6.35898 28.3363 5.21357 28.7701 3.86424C27.6274 4.54298 26.3768 5.02074 25.0726 5.27674C24.1956 4.34032 23.034 3.71965 21.768 3.51108C20.5021 3.30252 19.2028 3.51773 18.0717 4.12331C16.9406 4.72888 16.0411 5.69094 15.5128 6.86012C14.9846 8.0293 14.8571 9.34018 15.1501 10.5892C12.8347 10.473 10.5697 9.87118 8.50192 8.82287C6.43416 7.77457 4.60994 6.30319 3.14764 4.50424C2.64764 5.36674 2.36014 6.36674 2.36014 7.43174C2.35958 8.39049 2.59568 9.33454 3.04748 10.1802C3.49929 11.0258 4.15284 11.7468 4.95014 12.2792C4.02548 12.2498 3.12123 12 2.31264 11.5505V11.6255C2.31254 12.9702 2.77768 14.2735 3.62912 15.3142C4.48055 16.355 5.66585 17.0692 6.98389 17.3355C6.12612 17.5676 5.22681 17.6018 4.35389 17.4355C4.72576 18.5925 5.45013 19.6043 6.4256 20.3291C7.40106 21.054 8.57878 21.4557 9.79389 21.478C7.73118 23.0973 5.18375 23.9756 2.56139 23.9717C2.09686 23.9719 1.63273 23.9447 1.17139 23.8905C3.83323 25.602 6.93181 26.5103 10.0964 26.5067C20.8089 26.5067 26.6651 17.6342 26.6651 9.93924C26.6651 9.68924 26.6589 9.43674 26.6476 9.18674C27.7868 8.36296 28.77 7.34286 29.5514 6.17424L29.5539 6.17049Z" fill="white"/>
</svg>
